<svg xmlns="http://www.w3.org/2000/svg" viewBox="0 0 1440 320"><path fill="#0099ff" fill-opacity="1" d="M0,160L34.3,176C68.6,192,137,224,206,208C274.3,192,343,128,411,128C480,128,549,192,617,224C685.7,256,754,256,823,245.3C891.4,235,960,213,1029,186.7C1097.1,160,1166,128,1234,101.3C1302.9,75,1371,53,1406,42.7L1440,32L1440,320L1405.7,320C1371.4,320,1303,320,1234,320C1165.7,320,1097,320,1029,320C960,320,891,320,823,320C754.3,320,686,320,617,320C548.6,320,480,320,411,320C342.9,320,274,320,206,320C137.1,320,69,320,34,320L0,320Z"></path></svg>
